<svg xmlns="http://www.w3.org/2000/svg" viewBox="0 0 320 528" width="320" height="528" data-period-days="365" role="img" aria-labelledby="title-compact-light desc-compact-light" data-activity-window-days="30" data-activity-from="2026-08-05" data-activity-to="2026-09-03" data-theme="yunior-portal-neon-v1"><title id="title-compact-light">portyu9 GitHub activity summary · compact</title><desc id="desc-compact-light">4,353 contributions in the past year; 12 stars; 429 authored public pull requests reported by GitHub REST Search; 32 authored public issues reported by GitHub REST Search. 30 daily activity marks from 2026-08-05 through 2026-09-03, inclusive.</desc><rect width="320" height="528" fill="#FFFFFF"/><rect x="0.5" y="0.5" width="319" height="527" fill="none" stroke="#D9DFF0"/><text x="22" y="27" fill="#111827" font-family="ui-monospace,SFMono-Regular,Consolas,Liberation Mono,monospace" font-size="13" font-weight="800">portyu9</text><text x="298" y="27" fill="#5B6475" font-family="ui-monospace,SFMono-Regular,Consolas,Liberation Mono,monospace" font-size="9" font-weight="650" text-anchor="end">GITHUB ACTIVITY</text><text x="22" y="53" fill="#5B6475" font-family="ui-monospace,SFMono-Regular,Consolas,Liberation Mono,monospace" font-size="9" font-weight="650">SEP 04, 2025</text><path d="M106 50h108" stroke="#D9DFF0"/><text x="298" y="53" fill="#5B6475" font-family="ui-monospace,SFMono-Regular,Consolas,Liberation Mono,monospace" font-size="9" font-weight="650" text-anchor="end">SEP 03, 2026</text><text x="160" y="124" fill="#111827" font-family="ui-sans-serif,system-ui,-apple-system,BlinkMacSystemFont,Segoe UI,sans-serif" font-size="54" font-weight="680" text-anchor="middle">4,353</text><rect x="150" y="141" width="20" height="2" fill="#FF2BD6"/><text x="160" y="160" fill="#111827" font-family="ui-monospace,SFMono-Regular,Consolas,Liberation Mono,monospace" font-size="11" font-weight="650" text-anchor="middle">CONTRIBUTIONS · PAST YEAR</text><path d="M24 173h84" stroke="#D9DFF0"/><text x="66" y="206" fill="#111827" font-family="ui-sans-serif,system-ui,-apple-system,BlinkMacSystemFont,Segoe UI,sans-serif" font-size="22" font-weight="650" text-anchor="middle">12</text><text x="66" y="227" fill="#111827" font-family="ui-monospace,SFMono-Regular,Consolas,Liberation Mono,monospace" font-size="9" font-weight="600" text-anchor="middle">STARS</text><path d="M118 173h84" stroke="#D9DFF0"/><text x="160" y="206" fill="#111827" font-family="ui-sans-serif,system-ui,-apple-system,BlinkMacSystemFont,Segoe UI,sans-serif" font-size="22" font-weight="650" text-anchor="middle">429</text><text x="160" y="227" fill="#111827" font-family="ui-monospace,SFMono-Regular,Consolas,Liberation Mono,monospace" font-size="9" font-weight="600" text-anchor="middle">PULL REQUESTS</text><path d="M212 173h84" stroke="#D9DFF0"/><text x="254" y="206" fill="#111827" font-family="ui-sans-serif,system-ui,-apple-system,BlinkMacSystemFont,Segoe UI,sans-serif" font-size="22" font-weight="650" text-anchor="middle">32</text><text x="254" y="227" fill="#111827" font-family="ui-monospace,SFMono-Regular,Consolas,Liberation Mono,monospace" font-size="9" font-weight="600" text-anchor="middle">ISSUES</text><text x="22" y="267" fill="#111827" font-family="ui-monospace,SFMono-Regular,Consolas,Liberation Mono,monospace" font-size="11" font-weight="650">DAILY ACTIVITY · 30 DAYS</text><text x="186.4" y="266" fill="#5B6475" font-family="ui-monospace,SFMono-Regular,Consolas,Liberation Mono,monospace" font-size="9" font-weight="500" textLength="21.6" lengthAdjust="spacingAndGlyphs">LESS</text><rect x="218" y="259" width="8" height="8" rx="2" fill="#EEF2FF" data-legend-level="0"/><rect x="228" y="259" width="8" height="8" rx="2" fill="#E879F9" data-legend-level="1"/><rect x="238" y="259" width="8" height="8" rx="2" fill="#C026D3" data-legend-level="2"/><rect x="248" y="259" width="8" height="8" rx="2" fill="#7A5CFF" data-legend-level="3"/><rect x="258" y="259" width="8" height="8" rx="2" fill="#00AEEF" data-legend-level="4"/><text x="276" y="266" fill="#5B6475" font-family="ui-monospace,SFMono-Regular,Consolas,Liberation Mono,monospace" font-size="9" font-weight="500" textLength="21.6" lengthAdjust="spacingAndGlyphs">MORE</text><rect x="22" y="291" width="22" height="22" rx="4" fill="#C026D3" data-date="2026-08-05" data-count="19" data-level="2" data-window-day="1"/><rect x="50" y="291" width="22" height="22" rx="4" fill="#C026D3" data-date="2026-08-06" data-count="31" data-level="2" data-window-day="2"/><rect x="78" y="291" width="22" height="22" rx="4" fill="#7A5CFF" data-date="2026-08-07" data-count="217" data-level="3" data-window-day="3"/><rect x="106" y="291" width="22" height="22" rx="4" fill="#C026D3" data-date="2026-08-08" data-count="53" data-level="2" data-window-day="4"/><rect x="134" y="291" width="22" height="22" rx="4" fill="#C026D3" data-date="2026-08-09" data-count="27" data-level="2" data-window-day="5"/><rect x="162" y="291" width="22" height="22" rx="4" fill="#EEF2FF" data-date="2026-08-10" data-count="0" data-level="0" data-window-day="6"/><rect x="190" y="291" width="22" height="22" rx="4" fill="#EEF2FF" data-date="2026-08-11" data-count="0" data-level="0" data-window-day="7"/><rect x="218" y="291" width="22" height="22" rx="4" fill="#E879F9" data-date="2026-08-12" data-count="14" data-level="1" data-window-day="8"/><rect x="246" y="291" width="22" height="22" rx="4" fill="#E879F9" data-date="2026-08-13" data-count="4" data-level="1" data-window-day="9"/><rect x="274" y="291" width="22" height="22" rx="4" fill="#EEF2FF" data-date="2026-08-14" data-count="0" data-level="0" data-window-day="10"/><rect x="22" y="323" width="22" height="22" rx="4" fill="#EEF2FF" data-date="2026-08-15" data-count="0" data-level="0" data-window-day="11"/><rect x="50" y="323" width="22" height="22" rx="4" fill="#EEF2FF" data-date="2026-08-16" data-count="0" data-level="0" data-window-day="12"/><rect x="78" y="323" width="22" height="22" rx="4" fill="#EEF2FF" data-date="2026-08-17" data-count="0" data-level="0" data-window-day="13"/><rect x="106" y="323" width="22" height="22" rx="4" fill="#EEF2FF" data-date="2026-08-18" data-count="0" data-level="0" data-window-day="14"/><rect x="134" y="323" width="22" height="22" rx="4" fill="#E879F9" data-date="2026-08-19" data-count="10" data-level="1" data-window-day="15"/><rect x="162" y="323" width="22" height="22" rx="4" fill="#C026D3" data-date="2026-08-20" data-count="24" data-level="2" data-window-day="16"/><rect x="190" y="323" width="22" height="22" rx="4" fill="#C026D3" data-date="2026-08-21" data-count="33" data-level="2" data-window-day="17"/><rect x="218" y="323" width="22" height="22" rx="4" fill="#7A5CFF" data-date="2026-08-22" data-count="66" data-level="3" data-window-day="18"/><rect x="246" y="323" width="22" height="22" rx="4" fill="#7A5CFF" data-date="2026-08-23" data-count="115" data-level="3" data-window-day="19"/><rect x="274" y="323" width="22" height="22" rx="4" fill="#00AEEF" data-date="2026-08-24" data-count="304" data-level="4" data-window-day="20"/><rect x="22" y="355" width="22" height="22" rx="4" fill="#7A5CFF" data-date="2026-08-25" data-count="171" data-level="3" data-window-day="21"/><rect x="50" y="355" width="22" height="22" rx="4" fill="#7A5CFF" data-date="2026-08-26" data-count="167" data-level="3" data-window-day="22"/><rect x="78" y="355" width="22" height="22" rx="4" fill="#7A5CFF" data-date="2026-08-27" data-count="221" data-level="3" data-window-day="23"/><rect x="106" y="355" width="22" height="22" rx="4" fill="#00AEEF" data-date="2026-08-28" data-count="319" data-level="4" data-window-day="24"/><rect x="134" y="355" width="22" height="22" rx="4" fill="#00AEEF" data-date="2026-08-29" data-count="509" data-level="4" data-window-day="25"/><rect x="162" y="355" width="22" height="22" rx="4" fill="#00AEEF" data-date="2026-08-30" data-count="249" data-level="4" data-window-day="26"/><rect x="190" y="355" width="22" height="22" rx="4" fill="#00AEEF" data-date="2026-08-31" data-count="463" data-level="4" data-window-day="27"/><rect x="218" y="355" width="22" height="22" rx="4" fill="#00AEEF" data-date="2026-09-01" data-count="556" data-level="4" data-window-day="28"/><rect x="246" y="355" width="22" height="22" rx="4" fill="#00AEEF" data-date="2026-09-02" data-count="602" data-level="4" data-window-day="29"/><rect x="274" y="355" width="22" height="22" rx="4" fill="#E879F9" data-date="2026-09-03" data-count="1" data-level="1" data-window-day="30"/><path d="M22 493h276" stroke="#D9DFF0"/><text x="160" y="512" fill="#5B6475" font-family="ui-monospace,SFMono-Regular,Consolas,Liberation Mono,monospace" font-size="9" font-weight="650" text-anchor="middle">GITHUB GRAPHQL CONTRIBUTION CALENDAR</text></svg>
