<svg xmlns="http://www.w3.org/2000/svg" viewBox="0 0 640 360" width="640" height="360" data-period-days="365" role="img" aria-labelledby="title-wide-dark desc-wide-dark" data-activity-window-days="30" data-activity-from="2026-08-05" data-activity-to="2026-09-03" data-theme="yunior-portal-neon-v1"><title id="title-wide-dark">portyu9 GitHub activity summary · wide</title><desc id="desc-wide-dark">4,353 contributions in the past year; 12 stars; 429 authored public pull requests reported by GitHub REST Search; 32 authored public issues reported by GitHub REST Search. 30 daily activity marks from 2026-08-05 through 2026-09-03, inclusive.</desc><rect width="640" height="360" fill="#0B1020"/><rect x="0.5" y="0.5" width="639" height="359" fill="none" stroke="#28324A"/><rect x="0" y="0" width="141" height="5" fill="#FF2BD6"/><rect x="141" y="0" width="141" height="5" fill="#A020F0"/><rect x="282" y="0" width="154" height="5" fill="#7A5CFF"/><rect x="436" y="0" width="204" height="5" fill="#00AEEF"/><text x="30" y="35" fill="#F8FAFC" font-family="ui-monospace,SFMono-Regular,Consolas,Liberation Mono,monospace" font-size="11" font-weight="700">portyu9 · GITHUB ACTIVITY</text><text x="610" y="35" fill="#A7B0C4" font-family="ui-monospace,SFMono-Regular,Consolas,Liberation Mono,monospace" font-size="11" font-weight="500" text-anchor="end">2025.09.04 — 2026.09.03</text><text x="30" y="109" fill="#F8FAFC" font-family="ui-sans-serif,system-ui,-apple-system,BlinkMacSystemFont,Segoe UI,sans-serif" font-size="64" font-weight="650">4,353</text><rect x="30" y="132" width="20" height="2" fill="#FF2BD6"/><text x="59" y="137" fill="#F8FAFC" font-family="ui-monospace,SFMono-Regular,Consolas,Liberation Mono,monospace" font-size="11" font-weight="600">CONTRIBUTIONS · PAST YEAR</text><path d="M284 73h86" stroke="#28324A"/><text x="284" y="108" fill="#F8FAFC" font-family="ui-sans-serif,system-ui,-apple-system,BlinkMacSystemFont,Segoe UI,sans-serif" font-size="26" font-weight="620">12</text><text x="284" y="132" fill="#A7B0C4" font-family="ui-monospace,SFMono-Regular,Consolas,Liberation Mono,monospace" font-size="12" font-weight="550">STARS</text><path d="M390 73h86" stroke="#28324A"/><text x="390" y="108" fill="#F8FAFC" font-family="ui-sans-serif,system-ui,-apple-system,BlinkMacSystemFont,Segoe UI,sans-serif" font-size="26" font-weight="620">429</text><text x="390" y="132" fill="#A7B0C4" font-family="ui-monospace,SFMono-Regular,Consolas,Liberation Mono,monospace" font-size="12" font-weight="550">PULL REQUESTS</text><path d="M496 73h86" stroke="#28324A"/><text x="496" y="108" fill="#F8FAFC" font-family="ui-sans-serif,system-ui,-apple-system,BlinkMacSystemFont,Segoe UI,sans-serif" font-size="26" font-weight="620">32</text><text x="496" y="132" fill="#A7B0C4" font-family="ui-monospace,SFMono-Regular,Consolas,Liberation Mono,monospace" font-size="12" font-weight="550">ISSUES</text><text x="30" y="179" fill="#F8FAFC" font-family="ui-monospace,SFMono-Regular,Consolas,Liberation Mono,monospace" font-size="12" font-weight="550">DAILY ACTIVITY · LAST 30 DAYS</text><text x="485.4" y="178" fill="#A7B0C4" font-family="ui-monospace,SFMono-Regular,Consolas,Liberation Mono,monospace" font-size="9" font-weight="500" textLength="21.6" lengthAdjust="spacingAndGlyphs">LESS</text><rect x="517" y="170" width="9" height="9" rx="2" fill="#171D2D" data-legend-level="0"/><rect x="528" y="170" width="9" height="9" rx="2" fill="#D946EF" data-legend-level="1"/><rect x="539" y="170" width="9" height="9" rx="2" fill="#A020F0" data-legend-level="2"/><rect x="550" y="170" width="9" height="9" rx="2" fill="#7A5CFF" data-legend-level="3"/><rect x="561" y="170" width="9" height="9" rx="2" fill="#00AEEF" data-legend-level="4"/><text x="580" y="178" fill="#A7B0C4" font-family="ui-monospace,SFMono-Regular,Consolas,Liberation Mono,monospace" font-size="9" font-weight="500" textLength="21.6" lengthAdjust="spacingAndGlyphs">MORE</text><rect x="30" y="199" width="28" height="28" rx="4" fill="#A020F0" data-date="2026-08-05" data-count="19" data-level="2" data-window-day="1"/><rect x="69" y="199" width="28" height="28" rx="4" fill="#A020F0" data-date="2026-08-06" data-count="31" data-level="2" data-window-day="2"/><rect x="108" y="199" width="28" height="28" rx="4" fill="#7A5CFF" data-date="2026-08-07" data-count="217" data-level="3" data-window-day="3"/><rect x="147" y="199" width="28" height="28" rx="4" fill="#A020F0" data-date="2026-08-08" data-count="53" data-level="2" data-window-day="4"/><rect x="186" y="199" width="28" height="28" rx="4" fill="#A020F0" data-date="2026-08-09" data-count="27" data-level="2" data-window-day="5"/><rect x="225" y="199" width="28" height="28" rx="4" fill="#171D2D" data-date="2026-08-10" data-count="0" data-level="0" data-window-day="6"/><rect x="264" y="199" width="28" height="28" rx="4" fill="#171D2D" data-date="2026-08-11" data-count="0" data-level="0" data-window-day="7"/><rect x="303" y="199" width="28" height="28" rx="4" fill="#D946EF" data-date="2026-08-12" data-count="14" data-level="1" data-window-day="8"/><rect x="342" y="199" width="28" height="28" rx="4" fill="#D946EF" data-date="2026-08-13" data-count="4" data-level="1" data-window-day="9"/><rect x="381" y="199" width="28" height="28" rx="4" fill="#171D2D" data-date="2026-08-14" data-count="0" data-level="0" data-window-day="10"/><rect x="420" y="199" width="28" height="28" rx="4" fill="#171D2D" data-date="2026-08-15" data-count="0" data-level="0" data-window-day="11"/><rect x="459" y="199" width="28" height="28" rx="4" fill="#171D2D" data-date="2026-08-16" data-count="0" data-level="0" data-window-day="12"/><rect x="498" y="199" width="28" height="28" rx="4" fill="#171D2D" data-date="2026-08-17" data-count="0" data-level="0" data-window-day="13"/><rect x="537" y="199" width="28" height="28" rx="4" fill="#171D2D" data-date="2026-08-18" data-count="0" data-level="0" data-window-day="14"/><rect x="576" y="199" width="28" height="28" rx="4" fill="#D946EF" data-date="2026-08-19" data-count="10" data-level="1" data-window-day="15"/><rect x="30" y="238" width="28" height="28" rx="4" fill="#A020F0" data-date="2026-08-20" data-count="24" data-level="2" data-window-day="16"/><rect x="69" y="238" width="28" height="28" rx="4" fill="#A020F0" data-date="2026-08-21" data-count="33" data-level="2" data-window-day="17"/><rect x="108" y="238" width="28" height="28" rx="4" fill="#7A5CFF" data-date="2026-08-22" data-count="66" data-level="3" data-window-day="18"/><rect x="147" y="238" width="28" height="28" rx="4" fill="#7A5CFF" data-date="2026-08-23" data-count="115" data-level="3" data-window-day="19"/><rect x="186" y="238" width="28" height="28" rx="4" fill="#00AEEF" data-date="2026-08-24" data-count="304" data-level="4" data-window-day="20"/><rect x="225" y="238" width="28" height="28" rx="4" fill="#7A5CFF" data-date="2026-08-25" data-count="171" data-level="3" data-window-day="21"/><rect x="264" y="238" width="28" height="28" rx="4" fill="#7A5CFF" data-date="2026-08-26" data-count="167" data-level="3" data-window-day="22"/><rect x="303" y="238" width="28" height="28" rx="4" fill="#7A5CFF" data-date="2026-08-27" data-count="221" data-level="3" data-window-day="23"/><rect x="342" y="238" width="28" height="28" rx="4" fill="#00AEEF" data-date="2026-08-28" data-count="319" data-level="4" data-window-day="24"/><rect x="381" y="238" width="28" height="28" rx="4" fill="#00AEEF" data-date="2026-08-29" data-count="509" data-level="4" data-window-day="25"/><rect x="420" y="238" width="28" height="28" rx="4" fill="#00AEEF" data-date="2026-08-30" data-count="249" data-level="4" data-window-day="26"/><rect x="459" y="238" width="28" height="28" rx="4" fill="#00AEEF" data-date="2026-08-31" data-count="463" data-level="4" data-window-day="27"/><rect x="498" y="238" width="28" height="28" rx="4" fill="#00AEEF" data-date="2026-09-01" data-count="556" data-level="4" data-window-day="28"/><rect x="537" y="238" width="28" height="28" rx="4" fill="#00AEEF" data-date="2026-09-02" data-count="602" data-level="4" data-window-day="29"/><rect x="576" y="238" width="28" height="28" rx="4" fill="#D946EF" data-date="2026-09-03" data-count="1" data-level="1" data-window-day="30"/><path d="M30 288h580" stroke="#28324A"/><text x="30" y="330" fill="#A7B0C4" font-family="ui-monospace,SFMono-Regular,Consolas,Liberation Mono,monospace" font-size="10" font-weight="500">SOURCE · GITHUB GRAPHQL CONTRIBUTION CALENDAR</text><text x="610" y="330" fill="#A7B0C4" font-family="ui-monospace,SFMono-Regular,Consolas,Liberation Mono,monospace" font-size="10" font-weight="500" text-anchor="end">CONTRIBUTIONS THROUGH · SEP 03, 2026</text></svg>
