<svg xmlns="http://www.w3.org/2000/svg" width="1600" height="980" viewBox="0 0 1600 980" role="img" aria-labelledby="title desc">
<title id="title">Ƴunior Ƥortal — Quality Engineering Proof Topology</title>
<desc id="desc">A pure-vector quality-engineering proof topology with seven readable domain systems connected to an engineered-confidence core.</desc>
<defs>
 <linearGradient id="bg2" x1="0" y1="0" x2="1" y2="1"><stop offset="0" stop-color="#02030a"/><stop offset=".52" stop-color="#060919"/><stop offset="1" stop-color="#021025"/></linearGradient>
 <linearGradient id="s2" x1="0" y1="0" x2="1" y2="0"><stop offset="0" stop-color="#ff3df2"/><stop offset=".35" stop-color="#b64cff"/><stop offset=".72" stop-color="#4a85ff"/><stop offset="1" stop-color="#00e5ff"/></linearGradient>
 <linearGradient id="glass2" x1="0" y1="0" x2="1" y2="1"><stop offset="0" stop-color="#0d1330" stop-opacity=".87"/><stop offset=".55" stop-color="#050816" stop-opacity=".8"/><stop offset="1" stop-color="#05152a" stop-opacity=".9"/></linearGradient>
 <radialGradient id="reactor"><stop offset="0" stop-color="#00e5ff" stop-opacity=".25"/><stop offset=".45" stop-color="#804dff" stop-opacity=".13"/><stop offset="1" stop-color="#02030a" stop-opacity="0"/></radialGradient>
 <filter id="g2" x="-60%" y="-60%" width="220%" height="220%"><feGaussianBlur stdDeviation="5" result="b"/><feMerge><feMergeNode in="b"/><feMergeNode in="SourceGraphic"/></feMerge></filter>
 <pattern id="grid2" width="32" height="32" patternUnits="userSpaceOnUse"><path d="M32 0H0V32" fill="none" stroke="#6e9dff" stroke-opacity=".04"/></pattern>
 <pattern id="hex" width="48" height="42" patternUnits="userSpaceOnUse"><path d="M12 1h24l11 20-11 20H12L1 21Z" fill="none" stroke="#6a79ff" stroke-opacity=".045"/></pattern>
</defs>
<rect x="4" y="4" width="1592" height="972" rx="26" fill="url(#bg2)" stroke="url(#s2)" stroke-opacity=".48" stroke-width="2"/><rect x="4" y="4" width="1592" height="972" rx="26" fill="url(#grid2)"/><rect x="1030" y="4" width="566" height="235" fill="url(#hex)" opacity=".6"/>
<path d="M42 78h520l24 24h212" fill="none" stroke="#bd47ff" stroke-opacity=".5" stroke-width="1.8"/><path d="M1558 72h-310l-23 23h-208" fill="none" stroke="#00dfff" stroke-opacity=".5" stroke-width="1.8"/><circle cx="42" cy="78" r="4" fill="#ff3df2" filter="url(#g2)"/><circle cx="1558" cy="72" r="4" fill="#00e5ff" filter="url(#g2)"/>
<text x="72" y="86" fill="#e1d5ff" font-family="Inter,Segoe UI,system-ui,sans-serif" font-size="26" font-weight="790" letter-spacing="4.5">QUALITY SYSTEMS // PROOF TOPOLOGY</text>
<text x="72" y="132" fill="#f3f7ff" font-family="Inter,Segoe UI,system-ui,sans-serif" font-size="22" font-weight="570">Seven engineering domains. Independent signals. One standard: every confidence claim must be attributable.</text>
<g transform="translate(420 162)" font-family="Inter,Segoe UI,system-ui,sans-serif" font-size="18" font-weight="770" letter-spacing=".8">
 <path d="M0 0h225l12 12v42l-12 12H0l-12-12V12Z" fill="url(#glass2)" stroke="#cb4cff" stroke-opacity=".46"/><text x="24" y="41" fill="#f2c4ff">TRACEABLE EVIDENCE</text>
 <path d="M258 0h205l12 12v42l-12 12H258l-12-12V12Z" fill="url(#glass2)" stroke="#7d62ff" stroke-opacity=".46"/><text x="281" y="41" fill="#ded8ff">EXPLICIT ORACLES</text>
 <path d="M496 0h245l12 12v42l-12 12H496l-12-12V12Z" fill="url(#glass2)" stroke="#00dfff" stroke-opacity=".46"/><text x="519" y="41" fill="#b9f8ff">DETERMINISTIC CONTROL</text>
</g>

<g fill="none" stroke-linecap="round"><path d="M800 516C684 516 650 327 534 327" stroke="#d04cff" stroke-opacity=".5" stroke-width="2.2"/><path d="M800 516C684 516 650 505 534 505" stroke="#8d5aff" stroke-opacity=".5" stroke-width="2.2"/><path d="M800 516C684 516 650 683 534 683" stroke="#5977ff" stroke-opacity=".5" stroke-width="2.2"/><path d="M800 516C916 516 950 327 1066 327" stroke="#557fff" stroke-opacity=".5" stroke-width="2.2"/><path d="M800 516C916 516 950 505 1066 505" stroke="#2ca5ff" stroke-opacity=".5" stroke-width="2.2"/><path d="M800 516C916 516 950 683 1066 683" stroke="#00dfff" stroke-opacity=".5" stroke-width="2.2"/><path d="M800 655v100" stroke="#8562ff" stroke-opacity=".36" stroke-width="2" stroke-dasharray="4 8"/></g>

<g transform="translate(800 516)" font-family="Inter,Segoe UI,system-ui,sans-serif"><circle r="190" fill="url(#reactor)"/><circle r="146" fill="#060b1c" stroke="url(#s2)" stroke-width="2.7"/><circle r="124" fill="none" stroke="#6e70ff" stroke-opacity=".33"/><circle r="102" fill="none" stroke="#00dfff" stroke-opacity=".32" stroke-dasharray="4 8"/><path d="M0-146A146 146 0 0 1 138-47" fill="none" stroke="#00e5ff" stroke-width="7" stroke-linecap="round" filter="url(#g2)"/><path d="M-132-63A146 146 0 0 1-33-142" fill="none" stroke="#ff3df2" stroke-width="7" stroke-linecap="round" filter="url(#g2)"/><polygon points="0,-74 64,-37 64,37 0,74 -64,37 -64,-37" fill="#071025" stroke="url(#s2)" stroke-width="3"/><polygon points="0,-46 40,-23 40,23 0,46 -40,23 -40,-23" fill="none" stroke="#7da0ff" stroke-opacity=".5"/><path d="M0-46v46l40 23M0 0l-40 23M-40-23L0 0l40-23" fill="none" stroke="#00dfff" stroke-opacity=".38" stroke-width="1.4"/><text y="-12" text-anchor="middle" fill="#f8fbff" font-size="28" font-weight="850" letter-spacing="2.2">ENGINEERED</text><text y="28" text-anchor="middle" fill="#9af4ff" font-size="28" font-weight="850" letter-spacing="2.2">CONFIDENCE</text><text y="96" text-anchor="middle" fill="#bdcce0" font-size="17" font-weight="720" letter-spacing="1.1">OBSERVE • ISOLATE • VERIFY • EXPLAIN</text><circle cx="0" cy="-124" r="5" fill="#d84fff" filter="url(#g2)"/><circle cx="121" cy="0" r="5" fill="#4d8aff" filter="url(#g2)"/><circle cx="0" cy="124" r="5" fill="#00dfff" filter="url(#g2)"/><circle cx="-121" cy="0" r="5" fill="#9a5eff" filter="url(#g2)"/></g>

<g transform="translate(72 246)" font-family="Inter,Segoe UI,system-ui,sans-serif">
      <path d="M0 0h442l20 20v122l-20 20H0l-20-20V20Z" fill="url(#glass2)" stroke="#df4cff" stroke-opacity=".62" stroke-width="1.6"/>
      <path d="M10 10h374l15 15" fill="none" stroke="#df4cff" stroke-opacity=".22"/>
      <circle cx="42" cy="50" r="26" fill="#071023" stroke="#df4cff" stroke-width="1.8"/><text x="42" y="57" text-anchor="middle" fill="#df4cff" font-size="18" font-weight="850">AI</text>
      <text x="86" y="42" fill="#f6f9ff" font-size="24" font-weight="850" letter-spacing="1.3">AGENTIC QUALITY</text>
      <text x="86" y="78" fill="#c5d2e4" font-size="18.5" font-weight="590">AI can plan and diagnose; deterministic control</text><text x="86" y="103" fill="#c5d2e4" font-size="18.5" font-weight="590">owns side effects, evidence closure, and terminal truth.</text>
      <path d="M86 119h328" stroke="#df4cff" stroke-opacity=".18"/>
      <text x="86" y="145" fill="#99afca" font-size="17" font-weight="700" letter-spacing=".35">ai-qa-automation</text>
      <circle cx="420" cy="42" r="5" fill="#df4cff" filter="url(#g2)"/><path d="M400 42h-52" stroke="#df4cff" stroke-opacity=".4" stroke-dasharray="3 6"/>
    </g><g transform="translate(72 424)" font-family="Inter,Segoe UI,system-ui,sans-serif">
      <path d="M0 0h442l20 20v122l-20 20H0l-20-20V20Z" fill="url(#glass2)" stroke="#9a5eff" stroke-opacity=".62" stroke-width="1.6"/>
      <path d="M10 10h374l15 15" fill="none" stroke="#9a5eff" stroke-opacity=".22"/>
      <circle cx="42" cy="50" r="26" fill="#071023" stroke="#9a5eff" stroke-width="1.8"/><text x="42" y="57" text-anchor="middle" fill="#9a5eff" font-size="18" font-weight="850">WEB</text>
      <text x="86" y="42" fill="#f6f9ff" font-size="24" font-weight="850" letter-spacing="1.3">BROWSER SYSTEMS</text>
      <text x="86" y="78" fill="#c5d2e4" font-size="18.5" font-weight="590">Runner-native semantics, synchronization, isolation,</text><text x="86" y="103" fill="#c5d2e4" font-size="18.5" font-weight="590">lifecycle, diagnostics, and cross-browser evidence.</text>
      <path d="M86 119h328" stroke="#9a5eff" stroke-opacity=".18"/>
      <text x="86" y="145" fill="#99afca" font-size="17" font-weight="700" letter-spacing=".35">playwright • cypress • selenium</text>
      <circle cx="420" cy="42" r="5" fill="#9a5eff" filter="url(#g2)"/><path d="M400 42h-52" stroke="#9a5eff" stroke-opacity=".4" stroke-dasharray="3 6"/>
    </g><g transform="translate(72 602)" font-family="Inter,Segoe UI,system-ui,sans-serif">
      <path d="M0 0h442l20 20v122l-20 20H0l-20-20V20Z" fill="url(#glass2)" stroke="#5e7dff" stroke-opacity=".62" stroke-width="1.6"/>
      <path d="M10 10h374l15 15" fill="none" stroke="#5e7dff" stroke-opacity=".22"/>
      <circle cx="42" cy="50" r="26" fill="#071023" stroke="#5e7dff" stroke-width="1.8"/><text x="42" y="57" text-anchor="middle" fill="#5e7dff" font-size="18" font-weight="850">API</text>
      <text x="86" y="42" fill="#f6f9ff" font-size="24" font-weight="850" letter-spacing="1.3">API + CONTRACTS</text>
      <text x="86" y="78" fill="#c5d2e4" font-size="18.5" font-weight="590">Protocol, schema, transport, consumer contract,</text><text x="86" y="103" fill="#c5d2e4" font-size="18.5" font-weight="590">persistence, stateful workflow, and governance signals.</text>
      <path d="M86 119h328" stroke="#5e7dff" stroke-opacity=".18"/>
      <text x="86" y="145" fill="#99afca" font-size="17" font-weight="700" letter-spacing=".35">postman/newman • restassured • supertest • graphql</text>
      <circle cx="420" cy="42" r="5" fill="#5e7dff" filter="url(#g2)"/><path d="M400 42h-52" stroke="#5e7dff" stroke-opacity=".4" stroke-dasharray="3 6"/>
    </g><g transform="translate(1066 246)" font-family="Inter,Segoe UI,system-ui,sans-serif">
      <path d="M0 0h442l20 20v122l-20 20H0l-20-20V20Z" fill="url(#glass2)" stroke="#4d86ff" stroke-opacity=".62" stroke-width="1.6"/>
      <path d="M10 10h374l15 15" fill="none" stroke="#4d86ff" stroke-opacity=".22"/>
      <circle cx="42" cy="50" r="26" fill="#071023" stroke="#4d86ff" stroke-width="1.8"/><text x="42" y="57" text-anchor="middle" fill="#4d86ff" font-size="18" font-weight="850">MOB</text>
      <text x="86" y="42" fill="#f6f9ff" font-size="24" font-weight="850" letter-spacing="1.3">MOBILE SYSTEMS</text>
      <text x="86" y="78" fill="#c5d2e4" font-size="18.5" font-weight="590">W3C capability policy and session lifecycle.</text><text x="86" y="103" fill="#c5d2e4" font-size="18.5" font-weight="590">Deterministic harness; explicit device evidence.</text>
      <path d="M86 119h328" stroke="#4d86ff" stroke-opacity=".18"/>
      <text x="86" y="145" fill="#99afca" font-size="17" font-weight="700" letter-spacing=".35">appium • webdriverio</text>
      <circle cx="420" cy="42" r="5" fill="#4d86ff" filter="url(#g2)"/><path d="M400 42h-52" stroke="#4d86ff" stroke-opacity=".4" stroke-dasharray="3 6"/>
    </g><g transform="translate(1066 424)" font-family="Inter,Segoe UI,system-ui,sans-serif">
      <path d="M0 0h442l20 20v122l-20 20H0l-20-20V20Z" fill="url(#glass2)" stroke="#1faeff" stroke-opacity=".62" stroke-width="1.6"/>
      <path d="M10 10h374l15 15" fill="none" stroke="#1faeff" stroke-opacity=".22"/>
      <circle cx="42" cy="50" r="26" fill="#071023" stroke="#1faeff" stroke-width="1.8"/><text x="42" y="57" text-anchor="middle" fill="#1faeff" font-size="18" font-weight="850">PERF</text>
      <text x="86" y="42" fill="#f6f9ff" font-size="24" font-weight="850" letter-spacing="1.3">PERFORMANCE QE</text>
      <text x="86" y="78" fill="#c5d2e4" font-size="18.5" font-weight="590">Authorized demand models with explicit targets.</text><text x="86" y="103" fill="#c5d2e4" font-size="18.5" font-weight="590">Thresholds, business metrics, and safety gates.</text>
      <path d="M86 119h328" stroke="#1faeff" stroke-opacity=".18"/>
      <text x="86" y="145" fill="#99afca" font-size="17" font-weight="700" letter-spacing=".35">k6 • docker • github actions</text>
      <circle cx="420" cy="42" r="5" fill="#1faeff" filter="url(#g2)"/><path d="M400 42h-52" stroke="#1faeff" stroke-opacity=".4" stroke-dasharray="3 6"/>
    </g><g transform="translate(1066 602)" font-family="Inter,Segoe UI,system-ui,sans-serif">
      <path d="M0 0h442l20 20v122l-20 20H0l-20-20V20Z" fill="url(#glass2)" stroke="#00dfff" stroke-opacity=".62" stroke-width="1.6"/>
      <path d="M10 10h374l15 15" fill="none" stroke="#00dfff" stroke-opacity=".22"/>
      <circle cx="42" cy="50" r="26" fill="#071023" stroke="#00dfff" stroke-width="1.8"/><text x="42" y="57" text-anchor="middle" fill="#00dfff" font-size="18" font-weight="850">A11Y</text>
      <text x="86" y="42" fill="#f6f9ff" font-size="24" font-weight="850" letter-spacing="1.3">VISUAL + ACCESSIBILITY</text>
      <text x="86" y="78" fill="#c5d2e4" font-size="18.5" font-weight="590">Baselines, accessibility rules, keyboard states.</text><text x="86" y="103" fill="#c5d2e4" font-size="18.5" font-weight="590">Cross-browser evidence; oracle limits explicit.</text>
      <path d="M86 119h328" stroke="#00dfff" stroke-opacity=".18"/>
      <text x="86" y="145" fill="#99afca" font-size="17" font-weight="700" letter-spacing=".35">playwright • axe-core</text>
      <circle cx="420" cy="42" r="5" fill="#00dfff" filter="url(#g2)"/><path d="M400 42h-52" stroke="#00dfff" stroke-opacity=".4" stroke-dasharray="3 6"/>
    </g>

<g transform="translate(556 798)" font-family="Inter,Segoe UI,system-ui,sans-serif"><path d="M0 0h468l20 20v112l-20 20H0l-20-20V20Z" fill="url(#glass2)" stroke="#6377ff" stroke-opacity=".62" stroke-width="1.6"/><circle cx="44" cy="55" r="26" fill="#071023" stroke="#738bff" stroke-width="1.8"/><text x="44" y="62" text-anchor="middle" fill="#a9bdff" font-size="18" font-weight="850">PY</text><text x="88" y="44" fill="#f6f9ff" font-size="24" font-weight="850" letter-spacing="1.3">TEST FOUNDATIONS</text><text x="88" y="80" fill="#c2d0e3" font-size="19" font-weight="590">pytest orchestration keeps unit, API, persistence, browser,</text><text x="88" y="105" fill="#c2d0e3" font-size="19" font-weight="590">security, and performance failures independently attributable.</text><text x="88" y="134" fill="#9eb3ce" font-size="17" font-weight="700">qa-automation-python-pytest</text></g>
<path d="M72 944h1190l18 18h222" fill="none" stroke="#6e55ff" stroke-opacity=".28"/><text x="800" y="961" text-anchor="middle" fill="#b8c7da" font-family="Inter,Segoe UI,system-ui,sans-serif" font-size="17.5" font-weight="690" letter-spacing=".9">PROVE EACH REQUIREMENT AT THE LOWEST CONCLUSIVE LAYER. ESCALATE ONLY WHEN THE REQUIREMENT DEMANDS IT.</text>
</svg>