<svg xmlns="http://www.w3.org/2000/svg" width="620" height="170" viewBox="0 0 620 170" role="img" aria-labelledby="title desc" data-spotlight="engineering-spotlight-v1" data-layout="rich-v2" data-slot="2" data-date="2026-09-05" data-repository="portyu9/qa-automation-load-k6" data-glyph="gauge-needle" data-topology="load-wave">
  <title id="title">K6 PERFORMANCE QE</title>
  <desc id="desc">Daily deterministic Evidence Spotlight for portyu9/qa-automation-load-k6. Explicit workloads · target authorization · zero-traffic safety. Workflow signals are scoped to the named main-branch workflows.</desc>
  <defs>
    <linearGradient id="edge" x1="0" y1="0" x2="1" y2="1"><stop offset="0" stop-color="#7D64FF"/><stop offset=".54" stop-color="#FF2BD6"/><stop offset="1" stop-color="#28D7FF"/></linearGradient>
    <linearGradient id="wash" x1="0" y1="0" x2="1" y2="0"><stop offset="0" stop-color="#7D64FF" stop-opacity=".055"/><stop offset=".54" stop-color="#FF2BD6" stop-opacity=".026"/><stop offset="1" stop-color="#28D7FF" stop-opacity=".045"/></linearGradient>
  </defs>
  <rect x="1" y="1" width="618" height="168" rx="15" fill="#FFFFFF" stroke="#D0D7DE"/><rect x="2" y="2" width="616" height="166" rx="14" fill="url(#wash)"/>
  <path d="M458 74c18-28 36-28 54 0s36 28 54 0 28-28 40-8" fill="none" stroke="#7D64FF" stroke-opacity=".11"/><path d="M458 116c18-22 36-22 54 0s36 22 54 0 28-22 40-8" fill="none" stroke="#FF2BD6" stroke-opacity=".10"/><path d="M500 32h44l14 14h48" fill="none" stroke="#28D7FF" stroke-opacity=".12"/><circle cx="500" cy="74" r="3.4" fill="#FFFFFF" stroke="#7D64FF" stroke-width="1.5"/><circle cx="548" cy="102" r="3.4" fill="#FFFFFF" stroke="#FF2BD6" stroke-width="1.5"/><circle cx="558" cy="46" r="3.4" fill="#FFFFFF" stroke="#28D7FF" stroke-width="1.5"/><circle cx="594" cy="108" r="3.4" fill="#FFFFFF" stroke="#7D64FF" stroke-width="1.5"/>
  <rect x="20" y="18" width="4" height="134" rx="2" fill="url(#edge)"/>
  <text x="40" y="28" fill="#57606A" font-family="ui-monospace,SFMono-Regular,Consolas,monospace" font-size="10.5" font-weight="700" letter-spacing="1.15">ROTATING SYSTEM · 02</text>
  <g fill="none" stroke="#7D64FF" stroke-width="2" stroke-linecap="round" stroke-linejoin="round"><path d="M38 61a10 10 0 0 1 20 0"/><path d="M48 59l6-7"/><path d="M41 61h14"/></g>
  <text x="68" y="62" fill="#7D64FF" font-family="-apple-system,BlinkMacSystemFont,Segoe UI,sans-serif" font-size="24" font-weight="800">K6 PERFORMANCE QE</text>
  <text x="40" y="87" fill="#1F2328" font-family="ui-monospace,SFMono-Regular,Consolas,monospace" font-size="10.5" font-weight="700">PERFORMANCE · K6</text>
  <text x="40" y="110" fill="#57606A" font-family="-apple-system,BlinkMacSystemFont,Segoe UI,sans-serif" font-size="12.3" font-weight="550">Explicit workloads · target authorization · zero-traffic safety</text>
  <rect x="40.0" y="131" width="118.0" height="28" rx="8" fill="#F6F8FA" stroke="#1A7F37" stroke-opacity=".72" stroke-width="1.15"/><circle cx="55.0" cy="145" r="4.0" fill="#1A7F37"/><text x="67.0" y="149" fill="#3D444D" font-family="ui-monospace,SFMono-Regular,Consolas,monospace" font-size="9.6" font-weight="800">CI · PASSING</text><rect x="170.0" y="131" width="152.8" height="28" rx="8" fill="#F6F8FA" stroke="#1A7F37" stroke-opacity=".72" stroke-width="1.15"/><circle cx="185.0" cy="145" r="4.0" fill="#1A7F37"/><text x="197.0" y="149" fill="#3D444D" font-family="ui-monospace,SFMono-Regular,Consolas,monospace" font-size="9.6" font-weight="800">SECURITY · PASSING</text>
  <text x="590" y="158" text-anchor="end" fill="#57606A" font-family="ui-monospace,SFMono-Regular,Consolas,monospace" font-size="9.2">repo · qa-automation-load-k6</text>
</svg>
